<svg width="212" height="151" viewBox="0 0 212 151" fill="none" xmlns="http://www.w3.org/2000/svg">
<path d="M114.576 0.0698424C108.539 0.0587799 103.627 5.08849 103.693 11.0963C103.693 11.1451 103.698 11.2359 103.7 11.3196C103.761 17.2321 108.662 22.0364 114.554 22.0364H125.228C126.412 25.754 127.579 31.3476 127.684 38.6662C127.803 46.9834 126.864 56.4972 124.428 64.9828C121.992 73.4684 118.05 80.834 112.581 85.2713C107.112 89.7085 100.155 91.6618 89.8867 89.074C85.7997 88.0438 82.2424 83.2953 80.9128 76.4342C79.6281 69.8049 80.7255 61.7759 84.4779 55.2527C91.4139 52.4152 95.2215 46.047 94.9354 39.9049C94.6222 33.1817 89.0795 26.6818 80.6391 26.6818C67.1244 26.6818 50.1726 26.4677 38.557 30.1388C30.8265 32.583 26.13 40.5351 28.5604 47.7265C29.6971 51.0899 32.7956 53.7759 36.9077 55.0727C22.2943 63.3508 3.23003 78.9255 0.832124 108.837C0.791427 109.344 0.856159 109.854 1.02225 110.335C1.18834 110.816 1.45219 111.258 1.7972 111.632C2.14221 112.006 2.56091 112.305 3.02696 112.509C3.49301 112.713 3.99632 112.819 4.50522 112.819C8.68318 112.819 18.0539 112.814 26.695 112.805C20.3375 116.533 15.9926 121.589 15.9926 127.692C15.9926 133.862 19.5302 139.736 25.6003 143.753C31.6704 147.769 40.2593 150.155 51.2112 150.155C73.0472 150.155 83.9366 138.697 83.7865 128.283C83.6904 121.74 78.8565 116.507 72.2414 112.69C98.8623 112.738 128.188 112.892 128.188 112.892C129.119 112.898 130.018 112.552 130.705 111.923C131.392 111.293 131.815 110.428 131.89 109.499C131.89 109.499 132.575 96.9649 147.871 87.1942C148.29 86.9386 148.653 86.602 148.94 86.2042C149.227 85.8063 149.432 85.3553 149.542 84.8774C149.652 84.3995 149.666 83.9044 149.583 83.4211C149.5 82.9377 149.321 82.4758 149.057 82.0624C148.793 81.649 148.45 81.2924 148.046 81.0135C147.643 80.7346 147.188 80.5389 146.708 80.438C146.228 80.3371 145.732 80.333 145.251 80.4258C144.769 80.5187 144.311 80.7067 143.903 80.9788C129.257 90.3343 126.428 101.264 125.595 105.509C122.974 105.492 92.5654 105.286 63.1091 105.286C58.1418 105.286 54.1279 105.837 49.9364 106.287C46.9232 105.962 44.1141 105.416 40.8329 105.416C33.0447 105.416 17.6242 105.439 8.99936 105.444C14.8861 65.5183 55.4748 54.1508 55.4748 54.1508C55.4885 54.1471 55.4972 54.1476 55.5108 54.1436C56.4351 53.8649 57.2133 53.2349 57.6783 52.3889C58.1433 51.5429 58.258 50.5482 57.9977 49.6186C57.7375 48.6889 57.1231 47.8984 56.2865 47.4167C55.4499 46.935 54.4577 46.8005 53.523 47.0423L53.4942 47.0495C46.7934 48.958 42.173 48.9962 39.4644 48.3098C36.7559 47.6235 35.9487 46.5544 35.5465 45.3642C34.742 42.9836 36.8311 38.4151 40.7752 37.1681C50.2079 34.1869 67.1097 34.0568 80.6391 34.0568C85.7208 34.0568 87.4069 36.7938 87.5676 40.2434C87.7283 43.6931 85.8325 47.5826 80.6175 49.0301C79.721 49.2792 78.9517 49.858 78.4641 50.6505C73.2542 59.1091 72.0008 69.2011 73.6747 77.8386C75.3485 86.4761 80.1263 94.2139 88.0789 96.2185C100.087 99.245 110.054 96.816 117.226 90.997C124.398 85.1779 128.818 76.4161 131.515 67.021C134.212 57.6259 135.187 47.507 135.059 38.5653C134.93 29.6237 133.811 22.0019 131.695 16.9301C131.415 16.2589 130.943 15.6854 130.338 15.2818C129.734 14.8781 129.023 14.6623 128.296 14.6614H114.554C112.591 14.6614 111.088 13.1823 111.068 11.2404C111.069 11.1924 111.069 11.1443 111.068 11.0963C111.071 11.145 111.068 11.1306 111.068 11.0531C111.068 11.0411 111.068 11.0291 111.068 11.0171C111.046 9.02308 112.596 7.44123 114.561 7.44485C139.675 7.4916 159.967 10.9342 166.157 12.0398L157.58 28.864L147.331 23.7433C146.655 23.4066 145.892 23.2855 145.145 23.3962C144.399 23.507 143.704 23.8444 143.155 24.3627C142.606 24.8811 142.229 25.5555 142.076 26.2948C141.922 27.0341 141.999 27.8027 142.297 28.4967C142.297 28.4967 156.209 60.8802 161.123 81.9439C161.233 82.4161 161.436 82.8619 161.718 83.2558C162.001 83.6497 162.359 83.984 162.771 84.2395C163.183 84.4951 163.641 84.6668 164.12 84.745C164.598 84.8232 165.088 84.8062 165.56 84.6951C186.856 79.6625 200.135 92.1182 202.716 105.322H145.898C145.369 105.322 144.846 105.436 144.365 105.656C143.885 105.876 143.457 106.197 143.111 106.597C141.796 108.114 141.598 109.384 141.296 110.969C140.994 112.553 140.848 114.388 140.878 116.442C140.937 120.551 141.705 125.528 143.759 130.494C147.866 140.425 157.801 150.127 175.599 150.127C187.091 150.127 196.547 144.215 201.268 137.595C203.629 134.285 205.13 130.465 203.717 126.626C203.01 124.706 201.459 123.058 199.561 122.11C197.663 121.162 195.463 120.778 192.942 120.778H173.432C172.943 120.771 172.458 120.861 172.004 121.043C171.551 121.226 171.138 121.496 170.79 121.839C170.442 122.182 170.166 122.591 169.977 123.042C169.789 123.493 169.692 123.977 169.692 124.465C169.692 124.954 169.789 125.438 169.977 125.889C170.166 126.34 170.442 126.748 170.79 127.091C171.138 127.435 171.551 127.705 172.004 127.887C172.458 128.069 172.943 128.16 173.432 128.153H192.942C194.668 128.153 195.755 128.454 196.262 128.707C196.77 128.961 196.744 129.035 196.795 129.176C196.899 129.456 196.819 131.126 195.261 133.31C192.147 137.677 184.433 142.752 175.599 142.752C160.313 142.752 153.837 135.555 150.579 127.678C148.95 123.739 148.3 119.583 148.253 116.334C148.232 114.851 148.362 113.641 148.519 112.697H207.404C207.897 112.697 208.385 112.599 208.839 112.407C209.293 112.215 209.704 111.935 210.048 111.581C210.392 111.228 210.661 110.81 210.84 110.351C211.02 109.892 211.105 109.401 211.092 108.909C210.592 90.4543 192.574 72.9601 167.267 77.068C163.002 60.4827 156.629 44.0473 152.754 34.6906L157.558 37.0961C158.428 37.5311 159.434 37.6049 160.358 37.3014C161.282 36.9979 162.049 36.3417 162.492 35.4756L175.045 10.8443C175.304 10.3357 175.442 9.77393 175.447 9.20318C175.452 8.63243 175.324 8.06828 175.074 7.55514C174.825 7.042 174.459 6.59388 174.006 6.24605C173.554 5.89823 173.027 5.66019 172.467 5.55068C172.467 5.55068 144.714 0.125977 114.576 0.0698424ZM49.958 113.677C56.7887 114.505 62.9747 115.868 67.3224 118.055C73.5688 121.198 76.3616 124.996 76.4115 128.391C76.4826 133.323 70.5497 142.78 51.2112 142.78C41.3434 142.78 34.1623 140.575 29.6695 137.602C25.1768 134.629 23.3676 131.117 23.3676 127.692C23.3676 124.163 25.6434 120.764 32.1471 117.746C36.3157 115.811 42.6495 114.535 49.958 113.677Z" fill="#ECF4F1"/>
</svg>
