<svg width="42" height="49" viewBox="0 0 42 49" fill="none" xmlns="http://www.w3.org/2000/svg">
<path d="M20.9996 0.222168C17.8929 0.222168 15.0243 1.67043 13.1541 4.02599C12.3212 3.80643 11.4585 3.69439 10.5829 3.69439C5.0389 3.69439 0.527344 8.20595 0.527344 13.7499C0.527344 17.2539 2.23047 20.363 5.00825 22.1683L5.04123 28.8715C4.63768 29.7515 4.28776 30.9256 4.28776 32.3559C4.28776 34.5665 5.40755 36.52 7.40755 37.8854C9.45289 44.0329 17.1027 48.2222 20.9996 48.2222C24.9436 48.2222 32.8069 44.1515 34.6923 37.6493C36.6505 36.1666 37.7114 34.2324 37.7114 32.0937C37.7114 30.9604 37.4539 29.866 36.9596 28.8767L36.9909 22.1683C39.7687 20.3621 41.4718 17.2531 41.4718 13.7499C41.4718 8.20595 36.9602 3.69439 31.4162 3.69439C30.5398 3.69439 29.6779 3.80643 28.8451 4.02599C26.9748 1.67043 24.1062 0.222168 20.9996 0.222168ZM20.9996 6.44439C22.6093 6.44439 24.0529 7.48114 24.5933 9.02425C24.9124 9.93447 25.6352 10.6448 26.5517 10.9479C27.4645 11.2519 28.4721 11.1133 29.2721 10.5729C29.9068 10.1444 30.6491 9.91661 31.418 9.91661C33.5309 9.91661 35.2496 11.6362 35.2496 13.7499C35.2496 15.3935 34.3005 16.7991 32.8312 17.3315C31.6036 17.7751 30.7836 18.9381 30.7773 20.243L30.7669 22.4444H11.2339L11.2235 20.2413C11.2173 18.9373 10.3973 17.7751 9.16971 17.3315C7.69948 16.8 6.74957 15.3944 6.74957 13.7499C6.74957 11.6371 8.46912 9.91661 10.5829 9.91661C11.3518 9.91661 12.0923 10.1427 12.727 10.5711C13.527 11.1133 14.5337 11.2519 15.4475 10.9479C16.3639 10.6448 17.0867 9.93274 17.4058 9.02252C17.9454 7.48029 19.3898 6.44439 20.9996 6.44439ZM11.2548 26.8888H30.7461L30.7339 29.6996C30.7313 30.3547 30.9342 30.9944 31.3155 31.5277C31.4889 31.7704 31.49 32.0138 31.4909 32.0885C31.4607 32.2103 31.1412 32.6203 30.3954 33.0416C29.5527 33.5181 28.9784 34.3603 28.8451 35.3194C28.3375 38.9656 22.8955 41.9982 21.0013 41.9982C19.4502 41.9982 13.7529 38.8462 13.1662 35.3315C12.9973 34.3218 12.3442 33.4615 11.418 33.0277C10.8277 32.7504 10.5473 32.4581 10.5117 32.3559C10.5117 31.8447 10.6684 31.4858 10.7982 31.276C11.1066 30.7791 11.2696 30.2029 11.2669 29.618L11.2548 26.8888Z" fill="url(#paint0_linear_3644_5242)"/>
<defs>
<linearGradient id="paint0_linear_3644_5242" x1="48.0819" y1="-57.0086" x2="5.62068" y2="-53.5483" gradientUnits="userSpaceOnUse">
<stop offset="0.119173" stop-color="#009688"/>
<stop offset="1" stop-color="#00695C"/>
</linearGradient>
</defs>
</svg>
