<svg width="236" height="236" viewBox="0 0 236 236" fill="none" xmlns="http://www.w3.org/2000/svg">
<path d="M114.263 14.6997C113.286 14.7149 112.355 15.1171 111.675 15.8179C110.994 16.5187 110.619 17.4608 110.633 18.4376V42.0966C89.4807 42.6984 69.8901 58.7603 69.8901 79.8791C69.8901 92.529 76.0666 101.733 84.6257 108.277C93.1849 114.821 104.06 119.19 114.666 123.654C125.271 128.118 135.591 132.672 142.97 138.829C150.349 144.985 154.933 152.371 154.933 163.964C154.933 175.868 149.191 183.741 140.766 189.172C133.08 194.127 123.179 196.409 114.219 196.82C114.604 173.576 107.934 159.345 98.5691 152.866C88.8668 146.153 76.7224 148.277 70.5383 156.344C64.2746 164.516 66.7277 176.749 74.1826 186.629C80.9106 195.546 92.3763 202.634 106.938 203.994V221.25C106.931 221.739 107.021 222.224 107.204 222.677C107.386 223.131 107.656 223.543 107.999 223.891C108.343 224.239 108.751 224.516 109.202 224.704C109.653 224.893 110.137 224.99 110.625 224.99C111.114 224.99 111.598 224.893 112.049 224.704C112.5 224.516 112.908 224.239 113.252 223.891C113.595 223.543 113.865 223.131 114.047 222.677C114.23 222.224 114.32 221.739 114.313 221.25V204.188C124.484 203.778 135.573 201.286 144.756 195.366C154.745 188.927 162.308 178.356 162.308 163.964C162.308 150.302 156.262 140.308 147.695 133.161C139.128 126.013 128.188 121.34 117.532 116.855C106.877 112.37 96.4922 108.069 89.1055 102.422C81.7187 96.7744 77.2651 90.2595 77.2651 79.8791C77.2651 63.4911 93.2654 50.0887 110.633 49.4788V55.3846C109.495 73.8131 113.588 85.4035 120.781 91.2081C128.004 97.038 137.738 95.8344 144.54 90.4231C149.077 86.8158 151.257 81.4857 151.282 76.098C151.306 70.7103 149.389 65.1934 146.096 60.174C140.446 51.5625 130.395 44.6029 118.008 42.7016V18.4376C118.014 17.9442 117.922 17.4545 117.736 16.9975C117.55 16.5405 117.275 16.1254 116.925 15.7769C116.576 15.4283 116.161 15.1534 115.703 14.9684C115.246 14.7833 114.756 14.692 114.263 14.6997V14.6997ZM118.008 50.091C127.73 51.9222 135.563 57.5645 139.931 64.2216C142.569 68.2427 143.923 72.4921 143.907 76.062C143.89 79.6318 142.718 82.4554 139.953 84.6541C135.232 88.4099 129.852 89.0458 125.419 85.468C120.985 81.8901 116.888 72.8923 117.993 55.6223C118.001 55.5432 118.005 55.464 118.008 55.3846V50.091ZM86.6784 156.15C89.1718 156.285 91.8043 157.155 94.3703 158.93C100.962 163.49 107.177 174.977 106.844 196.604C94.744 195.264 85.486 189.368 80.0668 182.186C73.9352 174.06 73.0699 165.168 76.3937 160.831C78.2853 158.364 81.0704 156.7 84.2368 156.251C85.0284 156.138 85.8472 156.105 86.6784 156.15Z" fill="url(#paint0_linear_3644_4988)"/>
<defs>
<linearGradient id="paint0_linear_3644_4988" x1="114.637" y1="14.6992" x2="114.637" y2="224.99" gradientUnits="userSpaceOnUse">
<stop stop-color="#ECF4F1"/>
<stop offset="1" stop-color="#ECF4F1" stop-opacity="0.62"/>
</linearGradient>
</defs>
</svg>
