<svg width="16" height="16" viewBox="0 0 16 16" fill="none" xmlns="http://www.w3.org/2000/svg">
<rect width="16" height="16" rx="2" fill="url(#paint0_linear_4213_3976)"/>
<path opacity="0.9" fill-rule="evenodd" clip-rule="evenodd" d="M12.3923 6.51707C11.992 4.50815 10.2081 3 8.065 3C6.36351 3 4.88575 3.95497 4.14981 5.35248C2.37768 5.53881 1 7.02367 1 8.82296C1 10.7504 2.58374 12.3167 4.5325 12.3167H12.1863C13.8112 12.3167 15.13 11.0124 15.13 9.40526C15.13 7.868 13.9231 6.62188 12.3923 6.51707ZM6.68585 6.59856C6.65741 6.40377 6.77612 6.21222 6.97257 6.15289C7.16511 6.09475 7.36764 6.18313 7.45724 6.3535C8.15303 6.22686 8.87575 6.33487 9.5066 6.66621C10.2442 7.05361 10.7958 7.71457 11.04 8.50369L8.02788 9.41336L5.01576 10.323C4.77153 9.5339 4.85464 8.68126 5.24682 7.95267C5.56785 7.35628 6.07443 6.88299 6.68585 6.59856ZM12.3713 10.4298L3.30531 10.4157C3.19093 10.5682 3.19038 10.7783 3.30449 10.931L12.3705 10.945C12.4753 10.7974 12.4803 10.6011 12.3831 10.4483L12.3713 10.4298Z" fill="url(#paint1_linear_4213_3976)"/>
<defs>
<linearGradient id="paint0_linear_4213_3976" x1="-1.78252e-06" y1="-18.0628" x2="-11.6408" y2="-8.32372" gradientUnits="userSpaceOnUse">
<stop offset="0.119173" stop-color="#009688"/>
<stop offset="1" stop-color="#00695C"/>
</linearGradient>
<linearGradient id="paint1_linear_4213_3976" x1="4.9225" y1="13.1121" x2="12.614" y2="6.78987" gradientUnits="userSpaceOnUse">
<stop stop-color="#FFCC80"/>
<stop offset="1" stop-color="#F48FB1"/>
</linearGradient>
</defs>
</svg>
