<svg width="63" height="43" viewBox="0 0 63 43" fill="none" xmlns="http://www.w3.org/2000/svg">
<path opacity="0.9" fill-rule="evenodd" clip-rule="evenodd" d="M50.7938 16.355C49.0088 7.29875 41.055 0.5 31.5 0.5C23.9137 0.5 17.325 4.805 14.0437 11.105C6.1425 11.945 0 18.6388 0 26.75C0 35.4388 7.06125 42.5 15.75 42.5H49.875C57.12 42.5 63 36.62 63 29.375C63 22.445 57.6188 16.8275 50.7938 16.355ZM25.3244 14.453C25.1984 13.5754 25.727 12.7126 26.6014 12.4453C27.4584 12.1833 28.3598 12.5813 28.7591 13.3486C31.8573 12.778 35.0753 13.2649 37.8843 14.7585C41.1688 16.5049 43.625 19.4845 44.7126 23.0419L31.2995 27.1427L17.8864 31.2435C16.7988 27.6861 17.1689 23.8424 18.9153 20.5579C20.345 17.869 22.6013 15.7352 25.3244 14.453ZM50.6368 31.7399L10.2654 31.6765C9.75486 32.3655 9.75243 33.3093 10.2618 33.9993L50.6331 34.0627C51.1006 33.3958 51.1229 32.5137 50.6897 31.8241L50.6368 31.7399Z" fill="url(#paint0_linear_601_768)"/>
<defs>
<linearGradient id="paint0_linear_601_768" x1="17.4889" y1="46.0855" x2="52.0862" y2="17.9589" gradientUnits="userSpaceOnUse">
<stop stop-color="#FFCC80"/>
<stop offset="1" stop-color="#F48FB1"/>
</linearGradient>
</defs>
</svg>
