<svg id="Layer_1" data-name="Layer 1" xmlns="http://www.w3.org/2000/svg" viewBox="0 0 102 63.04"><defs><style>.cls-1{opacity:0.9;}.cls-2,.cls-3{fill:#26a69a;}.cls-3,.cls-4,.cls-5,.cls-6{stroke:#26a69a;}.cls-3,.cls-4{stroke-linejoin:round;}.cls-4{fill:none;}.cls-4,.cls-6{stroke-linecap:round;}.cls-5,.cls-6{fill:#fff;stroke-miterlimit:10;}.cls-5{stroke-width:1.01px;}.cls-6{stroke-width:2.5px;}</style></defs><title>foodle_logo</title><g class="cls-1"><ellipse class="cls-2" cx="42.41" cy="22.66" rx="1.86" ry="1.79"/><path class="cls-2" d="M110.91,66.83a1.29,1.29,0,1,1-1.37,1.29,1.33,1.33,0,0,1,1.37-1.29m0-1a2.29,2.29,0,1,0,2.36,2.29,2.33,2.33,0,0,0-2.36-2.29Z" transform="translate(-68.5 -45.46)"/></g><path class="cls-3" d="M93.11,99.63a25.34,25.34,0,0,1,17.81-30.42,25.69,25.69,0,0,1,30.76,16" transform="translate(-68.5 -45.46)"/><path class="cls-4" d="M153.12,76.24C157,63,148.66,49.38,136,46.51c-11.48-2.6-23.89,4.24-27.74,16.14" transform="translate(-68.5 -45.46)"/><path class="cls-4" d="M108.06,63.16c-5-7.48-15.22-9.09-21.79-4.09-6,4.54-7.6,13.49-3.24,20.37" transform="translate(-68.5 -45.46)"/><path class="cls-4" d="M153.33,108c9.7.72,17.2-6.81,16.64-15.67-.51-8-7.56-15.37-16.33-16.25" transform="translate(-68.5 -45.46)"/><path class="cls-4" d="M82.86,79.15c-8.65.79-14.82,8.68-13.74,16.59A14.61,14.61,0,0,0,84.67,108" transform="translate(-68.5 -45.46)"/><line class="cls-5" x1="14.6" y1="62.52" x2="85.62" y2="62.52"/><line class="cls-6" x1="13.47" y1="55.3" x2="84.97" y2="55.3"/></svg>