<svg width="25" height="24" viewBox="0 0 25 24" fill="none" xmlns="http://www.w3.org/2000/svg">
<path opacity="0.1" fill-rule="evenodd" clip-rule="evenodd" d="M0.308594 12C0.308594 5.37258 5.68118 0 12.3086 0C18.936 0 24.3086 5.37258 24.3086 12C24.3086 18.6274 18.936 24 12.3086 24C5.68118 24 0.308594 18.6274 0.308594 12Z" fill="white"/>
<path fill-rule="evenodd" clip-rule="evenodd" d="M12.3092 5.59961C10.571 5.59961 10.3529 5.60721 9.67021 5.63828C8.98887 5.66948 8.5238 5.77734 8.11686 5.93561C7.69592 6.09908 7.33885 6.31775 6.98311 6.67362C6.62711 7.02936 6.40844 7.38643 6.24444 7.80723C6.08577 8.2143 5.97777 8.67951 5.9471 9.36058C5.91657 10.0433 5.90857 10.2615 5.90857 11.9997C5.90857 13.7378 5.9163 13.9553 5.94724 14.638C5.97857 15.3193 6.08644 15.7844 6.24457 16.1913C6.40817 16.6123 6.62684 16.9693 6.98271 17.3251C7.33832 17.6811 7.69539 17.9003 8.11606 18.0637C8.52326 18.222 8.98847 18.3299 9.66968 18.3611C10.3523 18.3921 10.5704 18.3997 12.3084 18.3997C14.0467 18.3997 14.2641 18.3921 14.9468 18.3611C15.6281 18.3299 16.0937 18.222 16.5009 18.0637C16.9218 17.9003 17.2783 17.6811 17.6339 17.3251C17.9899 16.9693 18.2086 16.6123 18.3726 16.1915C18.5299 15.7844 18.6379 15.3192 18.6699 14.6381C18.7006 13.9554 18.7086 13.7378 18.7086 11.9997C18.7086 10.2615 18.7006 10.0434 18.6699 9.36071C18.6379 8.67937 18.5299 8.2143 18.3726 7.80737C18.2086 7.38643 17.9899 7.02936 17.6339 6.67362C17.2779 6.31762 16.9219 6.09895 16.5005 5.93561C16.0925 5.77734 15.6272 5.66948 14.9459 5.63828C14.2632 5.60721 14.0459 5.59961 12.3072 5.59961H12.3092ZM11.735 6.75294C11.9054 6.75267 12.0955 6.75294 12.3091 6.75294C14.018 6.75294 14.2205 6.75907 14.8953 6.78974C15.5193 6.81827 15.858 6.92254 16.0836 7.01014C16.3823 7.12614 16.5952 7.26481 16.8191 7.48881C17.0431 7.71281 17.1817 7.92615 17.298 8.22482C17.3856 8.45015 17.49 8.78882 17.5184 9.41283C17.5491 10.0875 17.5557 10.2902 17.5557 11.9982C17.5557 13.7062 17.5491 13.9089 17.5184 14.5836C17.4899 15.2076 17.3856 15.5462 17.298 15.7716C17.182 16.0702 17.0431 16.2829 16.8191 16.5068C16.5951 16.7308 16.3824 16.8694 16.0836 16.9854C15.8582 17.0734 15.5193 17.1774 14.8953 17.206C14.2206 17.2366 14.018 17.2433 12.3091 17.2433C10.6002 17.2433 10.3977 17.2366 9.72298 17.206C9.09898 17.1772 8.7603 17.0729 8.53457 16.9853C8.2359 16.8693 8.02256 16.7306 7.79856 16.5066C7.57456 16.2826 7.43589 16.0698 7.31962 15.771C7.23202 15.5457 7.12762 15.207 7.09922 14.583C7.06855 13.9083 7.06242 13.7057 7.06242 11.9966C7.06242 10.2875 7.06855 10.0859 7.09922 9.41123C7.12775 8.78722 7.23202 8.44855 7.31962 8.22295C7.43562 7.92428 7.57456 7.71095 7.79856 7.48694C8.02256 7.26294 8.2359 7.12427 8.53457 7.00801C8.76017 6.92001 9.09898 6.816 9.72298 6.78734C10.3134 6.76067 10.5422 6.75267 11.735 6.75134V6.75294ZM15.7254 7.81562C15.3014 7.81562 14.9574 8.15922 14.9574 8.58336C14.9574 9.00736 15.3014 9.35137 15.7254 9.35137C16.1495 9.35137 16.4935 9.00736 16.4935 8.58336C16.4935 8.15935 16.1495 7.81562 15.7254 7.81562ZM12.3092 8.71296C10.4941 8.71296 9.02248 10.1846 9.02248 11.9997C9.02248 13.8147 10.4941 15.2857 12.3092 15.2857C14.1243 15.2857 15.5953 13.8147 15.5953 11.9997C15.5953 10.1846 14.1243 8.71296 12.3092 8.71296ZM12.3092 9.8663C13.4873 9.8663 14.4425 10.8214 14.4425 11.9997C14.4425 13.1778 13.4873 14.133 12.3092 14.133C11.1309 14.133 10.1758 13.1778 10.1758 11.9997C10.1758 10.8214 11.1309 9.8663 12.3092 9.8663Z" fill="white"/>
</svg>
