<svg width="236" height="236" viewBox="0 0 236 236" fill="none" xmlns="http://www.w3.org/2000/svg">
<path d="M135.407 31.7902C133.344 31.7399 131.254 31.7524 129.149 31.8406C121.066 32.1793 112.766 33.7022 104.805 36.7597C72.5635 32.2383 69.2626 34.8098 56.4287 37.2926C54.5158 37.6627 53.0736 38.042 51.668 38.9563C50.9653 39.4135 50.2078 40.0688 49.7019 41.1242C49.1959 42.1796 49.1565 43.5826 49.4858 44.5812C50.1443 46.5784 51.3243 47.2979 52.4027 48.0094C53.3903 48.6611 54.5015 49.1845 55.6796 49.6875C48.8613 51.5346 42.2876 53.7782 36.7092 56.5512C31.7878 58.9975 27.5986 61.705 24.5592 64.848C21.5197 67.9911 19.4346 71.9963 20.2883 76.2634C20.7824 78.7332 22.6648 80.7887 24.696 81.7515C26.7272 82.7143 28.8803 82.9642 31.1563 82.9758C35.2647 82.9969 39.9458 81.9771 44.5667 80.8008C42.2634 82.6634 40.1949 84.0647 37.9335 86.1088C32.2885 91.2115 27.1167 96.6224 24.2495 102.155C22.8159 104.922 21.8962 107.831 22.2905 110.891C22.6848 113.952 24.6781 116.822 27.6129 118.612C33.1419 121.984 39.627 121.844 45.6254 119.764C51.6239 117.685 57.4419 113.785 62.925 109.105C67.9056 104.855 72.4385 99.8955 76.5227 95.0106C74.8295 102.796 73.801 109.505 73.9299 114.5C74.0415 118.826 74.7764 122.332 76.6451 125.094C78.5137 127.856 81.7519 129.456 84.9492 129.538C90.1392 129.671 93.9415 125.805 96.7463 121.154C99.551 116.504 101.726 110.487 103.444 103.898C104.387 100.281 104.8 96.4523 105.439 92.6627C113.639 121.132 114.621 158.241 98.7413 212.845C98.5815 213.395 98.5518 213.974 98.6547 214.537C98.7575 215.1 98.9901 215.632 99.3339 216.089C99.6777 216.547 100.123 216.918 100.635 217.174C101.148 217.43 101.712 217.563 102.285 217.562H170.244C170.733 217.569 171.218 217.479 171.671 217.297C172.125 217.115 172.538 216.844 172.886 216.501C173.234 216.158 173.51 215.749 173.699 215.298C173.887 214.847 173.984 214.364 173.984 213.875C173.984 213.386 173.887 212.902 173.699 212.452C173.51 212.001 173.234 211.592 172.886 211.249C172.538 210.906 172.125 210.635 171.671 210.453C171.218 210.271 170.733 210.18 170.244 210.187H107.024C124.327 147.877 119.611 107.187 107.125 76.3643C107.248 72.4419 107.583 68.2412 107.211 65.0425C106.757 61.1342 105.761 58.099 104.381 55.8238C103.69 54.6861 102.915 53.72 101.867 52.9501C100.819 52.1802 99.2916 51.5069 97.5025 51.8914C95.7134 52.2759 94.3916 53.7853 93.8726 55.1035C93.3537 56.4218 93.2866 57.6987 93.3901 59.0863C93.5971 61.8616 94.6099 65.1655 96.6671 69.3638C97.8831 71.8474 98.6434 74.9161 99.7496 77.5454C99.369 85.4061 98.4063 94.0155 96.3142 102.04C94.71 108.193 92.6295 113.697 90.43 117.344C88.2305 120.992 86.276 122.199 85.1364 122.17C83.787 122.136 83.4174 121.932 82.7597 120.96C82.1021 119.988 81.3956 117.829 81.3049 114.312C81.1234 107.28 83.2702 95.2649 88.5719 77.9127C88.8346 77.0438 88.7676 76.1084 88.3837 75.2857C87.9998 74.463 87.3259 73.8109 86.4911 73.4541C85.6562 73.0974 84.7192 73.0611 83.8593 73.3522C82.9994 73.6433 82.2771 74.2414 81.8306 75.0319C77.5696 82.6413 68.2238 94.8911 58.1428 103.495C53.1022 107.797 47.8588 111.18 43.2055 112.793C38.5523 114.406 34.7947 114.356 31.4516 112.317C29.9503 111.402 29.715 110.835 29.6007 109.948C29.4864 109.061 29.7746 107.519 30.7962 105.547C32.8394 101.605 37.5432 96.4078 42.8814 91.5824C53.5578 81.9316 66.6053 73.433 66.6053 73.433C67.3769 72.9315 67.9332 72.1597 68.1648 71.2691C68.3965 70.3785 68.2868 69.4334 67.8573 68.6196C67.4278 67.8057 66.7096 67.1818 65.8436 66.8704C64.9776 66.559 64.0265 66.5827 63.1771 66.9367C63.1771 66.9367 53.6883 70.8671 44.1058 73.433C39.3145 74.716 34.4722 75.6176 31.1923 75.6008C29.5524 75.5924 28.3476 75.3217 27.8577 75.0895C27.3679 74.8573 27.5663 75.0508 27.5192 74.8158C27.2907 73.6734 27.7464 72.1616 29.8599 69.976C31.9735 67.7904 35.5549 65.3547 39.9934 63.1483C48.8703 58.7357 61.158 55.1169 72.4246 53.6559C73.345 53.5254 74.1821 53.0522 74.7684 52.331C75.3548 51.6098 75.6472 50.6938 75.5872 49.7662C75.5271 48.8386 75.119 47.9679 74.4444 47.3284C73.7699 46.6888 72.8788 46.3276 71.9493 46.3169C70.8777 46.3169 65.8722 44.9978 61.8591 43.789C71.5572 41.5897 75.6485 39.9925 104.647 44.1347C105.29 44.2266 105.946 44.1471 106.548 43.9042C121.186 38.0064 138.075 38.3479 151.598 40.9585C158.359 42.2638 164.278 44.1283 168.559 45.9424C170.7 46.8494 172.432 47.7525 173.6 48.4992C174.769 49.2458 175.325 50.0482 175.077 49.5867C175.257 49.9214 175.286 50.0691 175.351 50.2709C175.161 50.3243 175.114 50.3565 174.566 50.4582C171.003 51.1183 161.154 50.5766 142.696 46.8211C141.764 46.6251 140.793 46.7971 139.985 47.3012C139.177 47.8052 138.595 48.6022 138.362 49.5254C138.128 50.4485 138.261 51.4262 138.732 52.2538C139.203 53.0814 139.975 53.6948 140.888 53.9656C152.323 57.4356 164.072 64.7262 172.189 72.9577C180.305 81.1891 184.351 90.0716 182.754 96.379C182.367 97.9082 181.385 99.3962 179.247 100.484C177.109 101.572 173.674 102.23 168.566 101.356C158.351 99.6066 141.738 91.5609 118.216 70.8186C117.558 70.2372 116.714 69.9098 115.836 69.8951C114.958 69.8804 114.103 70.1795 113.426 70.7386C112.749 71.2977 112.294 72.0801 112.142 72.945C111.99 73.8099 112.152 74.7006 112.598 75.4568C147.393 134.615 126.376 197.958 126.376 197.958C126.223 198.418 126.162 198.903 126.197 199.386C126.232 199.869 126.362 200.341 126.579 200.774C126.796 201.207 127.096 201.593 127.462 201.91C127.828 202.227 128.253 202.469 128.713 202.622C129.641 202.93 130.654 202.857 131.529 202.419C131.962 202.202 132.348 201.902 132.665 201.535C132.982 201.169 133.224 200.744 133.376 200.284C133.376 200.284 151.576 144.18 126.095 86.7354C143.616 100.324 157.175 106.886 167.32 108.623C173.578 109.694 178.697 109.04 182.589 107.06C186.481 105.079 189.008 101.742 189.906 98.194C192.528 87.8377 186.508 76.9695 177.446 67.7793C173.781 64.0624 169.254 60.8274 164.663 57.7323C169.345 58.1343 173.192 58.2136 175.905 57.7107C178.94 57.1484 181.757 55.5985 182.661 52.8277C183.564 50.0568 182.509 47.8369 181.566 46.0864C180.56 44.2182 179.232 43.3463 177.569 42.2837C175.905 41.2211 173.857 40.1781 171.433 39.1508C166.583 37.0961 160.247 35.1203 152.995 33.7204C147.556 32.6705 141.599 31.9411 135.407 31.7902Z" fill="url(#paint0_linear_3644_5074)"/>
<defs>
<linearGradient id="paint0_linear_3644_5074" x1="105.31" y1="31.7607" x2="105.31" y2="217.563" gradientUnits="userSpaceOnUse">
<stop stop-color="#ECF4F1"/>
<stop offset="1" stop-color="#ECF4F1" stop-opacity="0.62"/>
</linearGradient>
</defs>
</svg>
