<svg width="171" height="187" viewBox="0 0 171 187" fill="none" xmlns="http://www.w3.org/2000/svg">
<path d="M115.407 0.790184C113.344 0.73987 111.254 0.752377 109.149 0.840599C101.066 1.17928 92.7663 2.70222 84.8055 5.75967C52.5635 1.23827 49.2626 3.80978 36.4287 6.29263C34.5158 6.6627 33.0736 7.04195 31.668 7.95632C30.9653 8.41351 30.2078 9.06876 29.7019 10.1242C29.1959 11.1796 29.1565 12.5826 29.4858 13.5812C30.1443 15.5784 31.3243 16.2979 32.4027 17.0094C33.3903 17.6611 34.5015 18.1845 35.6796 18.6875C28.8613 20.5346 22.2876 22.7782 16.7092 25.5512C11.7878 27.9975 7.59864 30.705 4.55916 33.848C1.51968 36.9911 -0.565439 40.9963 0.288283 45.2634C0.782412 47.7332 2.66483 49.7887 4.696 50.7515C6.72717 51.7143 8.88031 51.9642 11.1563 51.9758C15.2647 51.9969 19.9458 50.9771 24.5667 49.8008C22.2634 51.6634 20.1949 53.0647 17.9335 55.1088C12.2885 60.2115 7.11669 65.6224 4.24947 71.1552C2.81585 73.9216 1.8962 76.8312 2.29048 79.8914C2.68476 82.9516 4.67815 85.8221 7.61287 87.6121C13.1419 90.9844 19.627 90.8437 25.6254 88.7644C31.6239 86.6852 37.4419 82.7848 42.925 78.1052C47.9056 73.8546 52.4385 68.8955 56.5227 64.0106C54.8295 71.796 53.801 78.5053 53.9299 83.4996C54.0415 87.8263 54.7764 91.3317 56.6451 94.094C58.5137 96.8563 61.7519 98.4561 64.9492 98.5377C70.1392 98.6708 73.9415 94.8053 76.7463 90.1544C79.551 85.5036 81.7264 79.4871 83.4443 72.8981C84.3873 69.2812 84.7999 65.4523 85.4393 61.6627C93.6392 90.1324 94.6208 127.241 78.7413 181.845C78.5815 182.395 78.5518 182.974 78.6547 183.537C78.7575 184.1 78.9901 184.632 79.3339 185.089C79.6777 185.547 80.1233 185.918 80.6355 186.174C81.1476 186.43 81.7123 186.563 82.2847 186.562H150.244C150.733 186.569 151.218 186.479 151.671 186.297C152.125 186.115 152.538 185.844 152.886 185.501C153.234 185.158 153.51 184.749 153.699 184.298C153.887 183.847 153.984 183.364 153.984 182.875C153.984 182.386 153.887 181.902 153.699 181.452C153.51 181.001 153.234 180.592 152.886 180.249C152.538 179.906 152.125 179.635 151.671 179.453C151.218 179.271 150.733 179.18 150.244 179.187H87.0238C104.327 116.877 99.6114 76.1868 87.1246 45.3643C87.2483 41.4419 87.5829 37.2412 87.211 34.0425C86.7568 30.1342 85.761 27.099 84.3806 24.8238C83.6904 23.6861 82.9154 22.72 81.867 21.9501C80.8186 21.1802 79.2916 20.5069 77.5025 20.8914C75.7134 21.2759 74.3916 22.7853 73.8726 24.1035C73.3537 25.4218 73.2866 26.6987 73.3901 28.0863C73.5971 30.8616 74.6099 34.1655 76.6671 38.3638C77.8831 40.8474 78.6433 43.9161 79.7496 46.5454C79.369 54.4061 78.4063 63.0155 76.3142 71.0399C74.71 77.1926 72.6295 82.6972 70.43 86.3445C68.2305 89.9918 66.2759 91.1992 65.1364 91.1699C63.787 91.1356 63.4174 90.9321 62.7597 89.96C62.1021 88.9879 61.3956 86.8286 61.3049 83.3124C61.1234 76.2799 63.2702 64.2649 68.5719 46.9127C68.8346 46.0438 68.7676 45.1084 68.3837 44.2857C67.9998 43.463 67.3259 42.8109 66.4911 42.4541C65.6562 42.0974 64.7192 42.0611 63.8593 42.3522C62.9994 42.6433 62.2771 43.2414 61.8306 44.0319C57.5696 51.6413 48.2238 63.8911 38.1428 72.4948C33.1022 76.7966 27.8588 80.1798 23.2055 81.7927C18.5523 83.4057 14.7947 83.3565 11.4516 81.3174C9.95027 80.4017 9.71497 79.8351 9.60066 78.9479C9.48636 78.0607 9.77464 76.5187 10.7962 74.5474C12.8394 70.6048 17.5432 65.4078 22.8814 60.5824C33.5578 50.9316 46.6053 42.433 46.6053 42.433C47.3769 41.9315 47.9332 41.1597 48.1648 40.2691C48.3965 39.3785 48.2868 38.4334 47.8573 37.6196C47.4278 36.8057 46.7096 36.1818 45.8436 35.8704C44.9776 35.559 44.0265 35.5827 43.1771 35.9367C43.1771 35.9367 33.6883 39.8671 24.1058 42.433C19.3145 43.716 14.4722 44.6176 11.1923 44.6008C9.55239 44.5924 8.34763 44.3217 7.85774 44.0895C7.36786 43.8573 7.56625 44.0508 7.51924 43.8158C7.29068 42.6734 7.74637 41.1616 9.85994 38.976C11.9735 36.7904 15.5549 34.3547 19.9934 32.1483C28.8703 27.7357 41.158 24.1169 52.4246 22.6559C53.345 22.5254 54.1821 22.0522 54.7684 21.331C55.3548 20.6098 55.6472 19.6938 55.5872 18.7662C55.5271 17.8386 55.119 16.9679 54.4444 16.3284C53.7699 15.6888 52.8788 15.3276 51.9493 15.3169C50.8777 15.3169 45.8722 13.9978 41.8591 12.789C51.5572 10.5897 55.6485 8.99247 84.647 13.1347C85.2901 13.2266 85.946 13.1471 86.5484 12.9042C101.186 7.00644 118.075 7.3479 131.598 9.95852C138.359 11.2638 144.278 13.1283 148.559 14.9424C150.7 15.8494 152.432 16.7525 153.6 17.4992C154.769 18.2458 155.325 19.0482 155.077 18.5867C155.257 18.9214 155.286 19.0691 155.351 19.2709C155.161 19.3243 155.114 19.3565 154.566 19.4582C151.003 20.1183 141.154 19.5766 122.696 15.8211C121.764 15.6251 120.793 15.7971 119.985 16.3012C119.177 16.8052 118.595 17.6022 118.362 18.5254C118.128 19.4485 118.261 20.4262 118.732 21.2538C119.203 22.0814 119.975 22.6948 120.888 22.9656C132.323 26.4356 144.072 33.7262 152.189 41.9577C160.305 50.1891 164.351 59.0716 162.754 65.379C162.367 66.9082 161.385 68.3962 159.247 69.4843C157.109 70.5724 153.674 71.2303 148.566 70.3557C138.351 68.6066 121.738 60.5609 98.2159 39.8186C97.5578 39.2372 96.7138 38.9098 95.8358 38.8951C94.9578 38.8804 94.1034 39.1795 93.4263 39.7386C92.7491 40.2977 92.2937 41.0801 92.1419 41.945C91.9901 42.8099 92.1519 43.7006 92.5982 44.4568C127.393 103.615 106.376 166.958 106.376 166.958C106.223 167.418 106.162 167.903 106.197 168.386C106.232 168.869 106.362 169.341 106.579 169.774C106.796 170.207 107.096 170.593 107.462 170.91C107.828 171.227 108.253 171.469 108.713 171.622C109.641 171.93 110.654 171.857 111.529 171.419C111.962 171.202 112.348 170.902 112.665 170.535C112.982 170.169 113.224 169.744 113.376 169.284C113.376 169.284 131.576 113.18 106.095 55.7354C123.616 69.324 137.175 75.8855 147.32 77.6227C153.578 78.6942 158.697 78.0404 162.589 76.0598C166.481 74.0793 169.008 70.7425 169.906 67.194C172.528 56.8377 166.508 45.9695 157.446 36.7793C153.781 33.0624 149.254 29.8274 144.663 26.7323C149.345 27.1343 153.192 27.2136 155.905 26.7107C158.94 26.1484 161.757 24.5985 162.661 21.8277C163.564 19.0568 162.509 16.8369 161.566 15.0864C160.56 13.2182 159.232 12.3463 157.569 11.2837C155.905 10.2211 153.857 9.17812 151.433 8.15078C146.583 6.09609 140.247 4.1203 132.995 2.72036C127.556 1.67051 121.599 0.941125 115.407 0.790184Z" fill="#ECF4F1"/>
</svg>
