<svg width="236" height="236" viewBox="0 0 236 236" fill="none" xmlns="http://www.w3.org/2000/svg">
<path d="M108.528 26.1583C87.7289 26.3787 68.0062 35.4547 53.079 49.5509C38.1519 63.6471 27.9357 82.8384 26.3807 103.589C24.8257 124.339 32.1114 146.562 51.5522 166.002C71.4843 185.935 95.4032 189.905 115.68 187.71C134.003 185.726 148.545 179.142 156.848 174.623C163.434 186.994 171.562 199.931 180.463 208.798C185.283 213.599 190.279 217.291 195.71 218.801C201.141 220.312 207.151 219.109 211.786 214.739C214.363 212.309 215.724 209.034 215.812 205.809C215.899 202.584 214.913 199.451 213.406 196.395C210.392 190.285 205.162 184.275 199.52 178.721C188.237 167.615 175.148 158.519 175.148 158.519C174.751 158.242 174.303 158.046 173.83 157.942C173.357 157.838 172.868 157.828 172.391 157.913C171.914 157.998 171.459 158.176 171.05 158.437C170.642 158.698 170.29 159.036 170.013 159.434C169.735 159.831 169.539 160.279 169.435 160.752C169.331 161.225 169.321 161.714 169.406 162.191C169.491 162.668 169.669 163.123 169.931 163.531C170.192 163.939 170.53 164.292 170.928 164.569C170.928 164.569 183.661 173.465 194.342 183.979C199.682 189.236 204.464 194.934 206.794 199.658C207.96 202.02 208.478 204.089 208.437 205.614C208.395 207.14 208.001 208.168 206.722 209.374C203.672 212.25 201.152 212.662 197.691 211.7C194.23 210.738 189.974 207.87 185.663 203.576C177.042 194.988 168.219 181.027 161.623 168.192C161.393 167.746 161.075 167.351 160.687 167.032C160.3 166.713 159.851 166.477 159.369 166.337C158.887 166.197 158.381 166.158 157.884 166.22C157.386 166.283 156.906 166.446 156.473 166.701C149.843 170.602 133.648 178.347 114.888 180.378C96.128 182.409 74.9816 179.003 56.7665 160.788C38.6428 142.664 32.3342 122.822 33.7341 104.143C35.1339 85.464 44.4276 67.8604 58.1421 54.9093C71.8567 41.9582 89.9109 33.7314 108.608 33.5333C127.304 33.3353 146.76 40.9885 163.913 60.527C181.48 80.5362 183.146 100.207 178.641 116.783C174.136 133.359 162.879 146.756 155.054 152.153C139.918 162.591 121.132 164.363 106.188 159.953C92.5372 155.924 82.9005 146.979 80.8361 135.242C81.0392 135.479 81.154 135.887 81.3619 136.114C86.7368 141.98 93.7067 144.384 100.239 144.021C113.303 143.297 125.22 132.379 124.467 118.972C123.976 110.249 120.38 103.531 115.082 99.5626C109.785 95.5939 103.011 94.4173 96.5512 95.7815C89.5404 97.2621 83.0738 102.018 78.5674 109.156C78.4847 108.514 78.2691 108.169 78.2001 107.499C77.0228 96.0579 78.6593 85.8293 82.1973 78.2299C85.7354 70.6305 91.0023 65.7625 97.3362 64.1425C103.259 62.6273 107.222 63.1742 110.523 64.6898C113.825 66.2054 116.588 68.8952 119.281 72.2305C124.668 78.901 129.407 88.457 139.555 91.3018C148.179 93.7194 153.129 98.1993 155.674 103.488C158.218 108.776 158.331 115.108 156.214 121.284C151.979 133.636 139.012 144.879 120.297 143.741C119.808 143.701 119.315 143.759 118.849 143.911C118.382 144.064 117.951 144.308 117.58 144.63C117.21 144.951 116.907 145.344 116.69 145.784C116.472 146.224 116.345 146.703 116.315 147.193C116.286 147.683 116.354 148.174 116.516 148.637C116.679 149.1 116.932 149.526 117.261 149.89C117.591 150.254 117.989 150.549 118.434 150.757C118.878 150.965 119.36 151.082 119.85 151.101C141.734 152.433 157.895 139.135 163.193 123.683C165.842 115.957 165.823 107.568 162.321 100.29C158.82 93.012 151.815 87.0781 141.55 84.2004C135.256 82.4359 131.035 75.0456 125.021 67.5995C122.015 63.8764 118.468 60.217 113.606 57.9846C108.744 55.7523 102.694 55.1593 95.5069 56.9979C86.6594 59.2608 79.7425 66.0357 75.5137 75.1185C71.285 84.2014 69.5679 95.6877 70.8611 108.256C71.397 113.461 72.5926 117.616 73.8716 121.616C73.2036 124.976 72.5401 128.352 72.7049 132.282C73.4247 149.454 87.0524 161.994 104.099 167.025C121.146 172.056 142.102 170.047 159.246 158.224C168.919 151.552 180.721 137.244 185.757 118.713C190.793 100.182 188.483 77.3435 169.451 55.6655C151.086 34.7466 129.328 25.938 108.528 26.1583ZM101.513 102.609C102.641 102.593 103.743 102.689 104.812 102.897C106.95 103.313 108.937 104.17 110.66 105.461C114.106 108.043 116.706 112.394 117.099 119.383C117.581 127.973 108.925 136.156 99.8282 136.661C95.2797 136.913 90.7677 135.46 86.7995 131.13C84.6485 128.782 82.7603 125.289 81.1962 120.903C83.8644 110.286 91.0033 104.492 98.0781 102.998C99.2335 102.754 100.386 102.625 101.513 102.609Z" fill="url(#paint0_linear_3644_4970)"/>
<defs>
<linearGradient id="paint0_linear_3644_4970" x1="120.997" y1="26.1543" x2="120.997" y2="219.423" gradientUnits="userSpaceOnUse">
<stop stop-color="#ECF4F1"/>
<stop offset="1" stop-color="#ECF4F1" stop-opacity="0.62"/>
</linearGradient>
</defs>
</svg>
