<svg width="190" height="194" viewBox="0 0 190 194" fill="none" xmlns="http://www.w3.org/2000/svg">
<path d="M82.5284 0.158324C61.7289 0.378671 42.0062 9.45469 27.079 23.5509C12.1519 37.6471 1.93569 56.8384 0.380672 77.5886C-1.17435 98.3388 6.11136 120.562 25.5522 140.002C45.4843 159.935 69.4032 163.905 89.6801 161.71C108.003 159.726 122.545 153.142 130.848 148.623C137.434 160.994 145.562 173.931 154.463 182.798C159.283 187.599 164.279 191.291 169.71 192.801C175.141 194.312 181.151 193.109 185.786 188.739C188.363 186.309 189.724 183.034 189.812 179.809C189.899 176.584 188.913 173.451 187.406 170.395C184.392 164.285 179.162 158.275 173.52 152.721C162.237 141.615 149.148 132.519 149.148 132.519C148.751 132.242 148.303 132.046 147.83 131.942C147.357 131.838 146.868 131.828 146.391 131.913C145.914 131.998 145.459 132.176 145.05 132.437C144.642 132.698 144.29 133.036 144.013 133.434C143.735 133.831 143.539 134.279 143.435 134.752C143.331 135.225 143.321 135.714 143.406 136.191C143.491 136.668 143.669 137.123 143.931 137.531C144.192 137.939 144.53 138.292 144.928 138.569C144.928 138.569 157.661 147.465 168.342 157.979C173.682 163.236 178.464 168.934 180.794 173.658C181.96 176.02 182.478 178.089 182.437 179.614C182.395 181.14 182.001 182.168 180.722 183.374C177.672 186.25 175.152 186.662 171.691 185.7C168.23 184.738 163.974 181.87 159.663 177.576C151.042 168.988 142.219 155.027 135.623 142.192C135.393 141.746 135.075 141.351 134.687 141.032C134.3 140.713 133.851 140.477 133.369 140.337C132.887 140.197 132.381 140.158 131.884 140.22C131.386 140.283 130.906 140.446 130.473 140.701C123.843 144.602 107.648 152.347 88.8879 154.378C70.128 156.409 48.9816 153.003 30.7665 134.788C12.6428 116.664 6.33425 96.8224 7.73407 78.1432C9.13388 59.464 18.4276 41.8604 32.1421 28.9093C45.8567 15.9582 63.9109 7.73139 82.6076 7.53332C101.304 7.33525 120.76 14.9885 137.913 34.527C155.48 54.5362 157.146 74.2072 152.641 90.783C148.136 107.359 136.879 120.756 129.054 126.153C113.918 136.591 95.1319 138.363 80.1877 133.953C66.5372 129.924 56.9005 120.979 54.8361 109.242C55.0392 109.479 55.154 109.887 55.3619 110.114C60.7368 115.98 67.7067 118.384 74.2387 118.021C87.3028 117.297 99.2196 106.379 98.4667 92.9724C97.9764 84.2486 94.3796 77.5313 89.0823 73.5626C83.785 69.5939 77.0105 68.4173 70.5512 69.7815C63.5404 71.2621 57.0738 76.018 52.5674 83.1559C52.4847 82.5139 52.2691 82.1692 52.2001 81.4994C51.0228 70.0579 52.6593 59.8293 56.1973 52.2299C59.7354 44.6305 65.0023 39.7625 71.3362 38.1425C77.2586 36.6273 81.2222 37.1742 84.5234 38.6898C87.8246 40.2054 90.5876 42.8952 93.2812 46.2305C98.6685 52.901 103.407 62.457 113.555 65.3018C122.179 67.7194 127.129 72.1993 129.674 77.4878C132.218 82.7763 132.331 89.1085 130.214 95.2843C125.979 107.636 113.012 118.879 94.2967 117.741C93.8075 117.701 93.3153 117.759 92.8489 117.911C92.3825 118.064 91.9512 118.308 91.5804 118.63C91.2096 118.951 90.9067 119.344 90.6895 119.784C90.4723 120.224 90.3451 120.703 90.3154 121.193C90.2856 121.683 90.354 122.174 90.5164 122.637C90.6789 123.1 90.9321 123.526 91.2613 123.89C91.5905 124.254 91.9891 124.549 92.4336 124.757C92.8782 124.965 93.3598 125.082 93.8502 125.101C115.734 126.433 131.895 113.135 137.193 97.6826C139.842 89.9566 139.823 81.5681 136.321 74.29C132.82 67.012 125.815 61.0781 115.55 58.2004C109.256 56.4359 105.035 49.0456 99.0213 41.5995C96.0145 37.8764 92.4682 34.217 87.6059 31.9846C82.7436 29.7523 76.6936 29.1593 69.5069 30.9979C60.6594 33.2608 53.7425 40.0357 49.5137 49.1185C45.285 58.2014 43.5679 69.6877 44.8611 82.2556C45.397 87.4614 46.5926 91.6159 47.8716 95.6156C47.2036 98.9758 46.5401 102.352 46.7049 106.282C47.4247 123.454 61.0524 135.994 78.0991 141.025C95.1458 146.056 116.102 144.047 133.246 132.224C142.919 125.552 154.721 111.244 159.757 92.7131C164.793 74.1821 162.483 51.3435 143.451 29.6655C125.086 8.74657 103.328 -0.0620218 82.5284 0.158324ZM75.5135 76.6091C76.6409 76.5929 77.7431 76.6892 78.8121 76.8972C80.95 77.3132 82.9373 78.1704 84.6602 79.4612C88.106 82.0427 90.7061 86.3943 91.0989 93.3829C91.5813 101.973 82.9251 110.156 73.8282 110.661C69.2797 110.913 64.7677 109.46 60.7995 105.13C58.6485 102.782 56.7603 99.2886 55.1962 94.9026C57.8644 84.2865 65.0033 78.4922 72.0781 76.998C73.2335 76.754 74.3861 76.6253 75.5135 76.6091Z" fill="#ECF4F1"/>
</svg>
