<svg width="52" height="50" viewBox="0 0 52 50" fill="none" xmlns="http://www.w3.org/2000/svg">
<path d="M24.2227 0.222168C22.7498 0.222168 21.556 1.41595 21.556 2.88883V3.42182C14.0215 5.11376 7.70416 10.3638 7.39106 10.6284C6.53595 11.3502 6.22407 12.53 6.60807 13.5815C6.99207 14.6331 7.99155 15.3333 9.11155 15.3333H42.8893C44.0093 15.3333 45.0105 14.6322 45.3945 13.5815C45.7785 12.5309 45.4649 11.3502 44.6098 10.6284C44.296 10.3638 37.9794 5.11376 30.4449 3.42182V2.88883C30.4449 1.41595 29.2511 0.222168 27.7782 0.222168H24.2227ZM26.0004 8.22217C28.5507 8.22217 31.1444 8.99106 33.4484 9.99995H18.5525C20.8565 8.99106 23.4511 8.22217 26.0004 8.22217ZM3.77821 16.2222C1.81466 16.2222 0.222656 17.8142 0.222656 19.7777C0.222656 21.7413 1.81466 23.3333 3.77821 23.3333H4.48134L6.49002 32.3732C7.06604 34.9639 8.70671 37.058 10.8945 38.2499L9.15495 43.9045C8.71761 45.3276 8.98404 46.8903 9.86849 48.0885C10.752 49.2849 12.1678 49.9999 13.6567 49.9999H38.1793C39.6744 49.9999 41.0479 49.3144 41.9466 48.1197C42.8444 46.9242 43.1213 45.4147 42.7053 43.9791L41.056 38.276C43.2687 37.0889 44.9293 34.9836 45.5091 32.3732L47.5195 23.3333H48.2227C50.1862 23.3333 51.7782 21.7413 51.7782 19.7777C51.7782 17.8142 50.1862 16.2222 48.2227 16.2222H44.6671C43.0004 16.2222 41.5584 17.3802 41.1966 19.0069L38.5681 30.8298C38.3859 31.6485 37.6711 32.2222 36.832 32.2222H15.1671C14.328 32.2222 13.6132 31.6485 13.431 30.8298L10.8043 19.0069C10.4434 17.3802 9.00043 16.2222 7.33377 16.2222H3.77821ZM26.0004 20.6666C24.3969 20.6666 22.9888 21.4604 22.1168 22.6666C21.2394 22.2462 20.2027 22.1081 19.0924 22.493C17.7973 22.9419 16.7868 24.0606 16.4952 25.3993C16.2694 26.4321 16.462 27.4021 16.9154 28.2048C17.0754 28.4884 17.3739 28.6666 17.7001 28.6666H34.3008C34.6261 28.6666 34.9255 28.4884 35.0855 28.2048C35.5397 27.4021 35.7314 26.4321 35.5056 25.3993C35.2132 24.0606 34.2026 22.9419 32.9084 22.493C31.7982 22.1081 30.7614 22.2471 29.8841 22.6666C29.0121 21.4604 27.604 20.6666 26.0004 20.6666ZM16.1393 39.3333H35.8077L37.2852 44.4392C37.3012 44.4934 37.2912 44.551 37.2574 44.5954C37.2236 44.6399 37.171 44.6666 37.115 44.6666H14.74C14.684 44.6666 14.6323 44.6399 14.5977 44.5954C14.5648 44.5501 14.553 44.4917 14.5699 44.4374L16.1393 39.3333ZM26.0004 40.2222C25.0182 40.2222 24.2227 41.0177 24.2227 41.9999C24.2227 42.9822 25.0182 43.7777 26.0004 43.7777C26.9827 43.7777 27.7782 42.9822 27.7782 41.9999C27.7782 41.0177 26.9827 40.2222 26.0004 40.2222Z" fill="url(#paint0_linear_3644_5226)"/>
<defs>
<linearGradient id="paint0_linear_3644_5226" x1="60.1015" y1="-59.1283" x2="6.80274" y2="-53.8544" gradientUnits="userSpaceOnUse">
<stop offset="0.119173" stop-color="#009688"/>
<stop offset="1" stop-color="#00695C"/>
</linearGradient>
</defs>
</svg>
