<svg width="38" height="51" viewBox="0 0 38 51" fill="none" xmlns="http://www.w3.org/2000/svg">
<path d="M10.1108 0.111328C7.16056 0.111328 4.77745 2.50333 4.77745 5.44466C4.77745 8.38599 7.16056 10.778 10.1108 10.778C13.061 10.778 15.4441 8.38599 15.4441 5.44466C15.4441 2.50333 13.061 0.111328 10.1108 0.111328ZM27.8886 0.111328C24.9383 0.111328 22.5552 2.50333 22.5552 5.44466C22.5552 8.38599 24.9383 10.778 27.8886 10.778C30.8388 10.778 33.2219 8.38599 33.2219 5.44466C33.2219 2.50333 30.8388 0.111328 27.8886 0.111328ZM10.1108 12.5558C4.77745 12.5558 0.333008 16.1113 0.333008 18.778V30.3336C0.333008 31.8091 1.52412 33.0002 2.99967 33.0002V48.054C2.99967 49.5589 4.21874 50.778 5.72363 50.778C7.1823 50.778 8.38274 49.629 8.44585 48.1721L9.07433 33.0002H11.1472L11.7757 48.1721C11.8388 49.629 13.0393 50.778 14.4979 50.778C16.0028 50.778 17.2219 49.5589 17.2219 48.054V33.0002V29.4447V17.8891H29.6663C31.1392 17.8891 32.333 16.6953 32.333 15.2224C32.333 13.7496 31.1392 12.5558 29.6663 12.5558H10.1108ZM35.8712 15.5419C35.7112 18.8308 32.9997 21.4447 29.6663 21.4447H20.7775V29.4447V33.0002V48.054C20.7775 49.5589 21.9965 50.778 23.5014 50.778C24.9601 50.778 26.1605 49.629 26.2236 48.1721L26.8521 33.0002H28.925L29.5535 48.1721C29.6166 49.629 30.817 50.778 32.2757 50.778C33.7806 50.778 34.9997 49.5589 34.9997 48.054V33.0002C36.4752 33.0002 37.6663 31.8091 37.6663 30.3336V18.778C37.6663 17.7469 37.0001 16.5819 35.8712 15.5419Z" fill="url(#paint0_linear_3644_5234)"/>
<defs>
<linearGradient id="paint0_linear_3644_5234" x1="43.6935" y1="-60.2989" x2="4.91219" y2="-57.5689" gradientUnits="userSpaceOnUse">
<stop offset="0.119173" stop-color="#009688"/>
<stop offset="1" stop-color="#00695C"/>
</linearGradient>
</defs>
</svg>
