<svg width="25" height="24" viewBox="0 0 25 24" fill="none" xmlns="http://www.w3.org/2000/svg">
<path opacity="0.1" fill-rule="evenodd" clip-rule="evenodd" d="M0.308594 12C0.308594 5.37258 5.68118 0 12.3086 0C18.936 0 24.3086 5.37258 24.3086 12C24.3086 18.6274 18.936 24 12.3086 24C5.68118 24 0.308594 18.6274 0.308594 12Z" fill="white"/>
<path fill-rule="evenodd" clip-rule="evenodd" d="M11.9492 9.75395L11.9744 10.1692L11.5547 10.1183C10.027 9.92343 8.69242 9.26245 7.55926 8.15236L7.00528 7.60154L6.86258 8.0083C6.56041 8.91502 6.75346 9.87258 7.38299 10.5166C7.71874 10.8725 7.6432 10.9234 7.06403 10.7115C6.86258 10.6437 6.68631 10.5929 6.66953 10.6183C6.61077 10.6776 6.81222 11.4487 6.9717 11.7538C7.18994 12.1775 7.63481 12.5927 8.12164 12.8385L8.53294 13.0334L8.0461 13.0419C7.57605 13.0419 7.55926 13.0503 7.60963 13.2283C7.7775 13.7791 8.44061 14.3638 9.17926 14.618L9.69967 14.796L9.24641 15.0672C8.57491 15.457 7.78589 15.6773 6.99688 15.6942C6.61916 15.7027 6.30859 15.7366 6.30859 15.762C6.30859 15.8468 7.33263 16.3213 7.92859 16.5077C9.71646 17.0586 11.8401 16.8213 13.4349 15.8807C14.568 15.2112 15.7012 13.8808 16.23 12.5927C16.5154 11.9063 16.8008 10.6522 16.8008 10.0505C16.8008 9.66073 16.826 9.60989 17.296 9.14382C17.573 8.87265 17.8332 8.57606 17.8836 8.49132C17.9675 8.33031 17.9591 8.33031 17.531 8.47437C16.8176 8.72859 16.7168 8.69469 17.0694 8.31336C17.3296 8.04219 17.6402 7.5507 17.6402 7.40664C17.6402 7.38122 17.5143 7.42359 17.3716 7.49986C17.2205 7.5846 16.8847 7.71171 16.6329 7.78797L16.1796 7.93203L15.7684 7.65239C15.5417 7.49986 15.2228 7.33038 15.0549 7.27953C14.6268 7.16089 13.9721 7.17784 13.586 7.31343C12.5368 7.69476 11.8737 8.67774 11.9492 9.75395Z" fill="white"/>
</svg>
