<svg width="48" height="48" viewBox="0 0 48 48" fill="none" xmlns="http://www.w3.org/2000/svg">
<path d="M23.9998 0.888672C20.918 0.888672 17.9846 2.00405 15.7046 3.97027C15.4229 3.99071 15.1426 4.02059 14.8644 4.05881C12.1444 4.43659 9.63288 5.68266 7.65777 7.65777C5.4791 9.83732 4.19423 12.702 3.97201 15.7046C2.00578 17.9855 0.888672 20.918 0.888672 23.9998C0.888672 27.0816 2.00578 30.014 3.97201 32.2949C4.19423 35.2985 5.47821 38.1622 7.65777 40.3418C9.62221 42.3062 12.1179 43.548 14.821 43.9338C15.1125 43.9756 15.4078 44.008 15.7046 44.0293C17.9855 45.9946 20.918 47.1109 23.9998 47.1109C27.0807 47.1109 30.0149 45.9946 32.2949 44.0293C32.5705 44.0089 32.8441 43.9798 33.1161 43.9425C35.8432 43.5674 38.3622 42.3214 40.3418 40.3418C42.5205 38.1622 43.8053 35.2976 44.0276 32.2949C45.9938 30.0149 47.1109 27.0816 47.1109 23.9998C47.1109 20.918 45.9938 17.9847 44.0276 15.7029C43.8053 12.6994 42.5214 9.8347 40.3418 7.65603C38.3436 5.6587 35.7979 4.40932 33.0415 4.04666C32.7943 4.01466 32.5447 3.98805 32.2949 3.97027C30.0149 2.00494 27.0816 0.888672 23.9998 0.888672ZM23.9998 7.99978C25.9189 7.99978 27.6107 8.96524 28.6196 10.439C28.936 10.9012 29.4669 11.1734 30.0171 11.1734C30.1185 11.1734 30.2205 11.1625 30.3227 11.1439C30.6649 11.0799 31.0108 11.0484 31.3574 11.0484C32.7894 11.0484 34.2216 11.5948 35.314 12.6873C36.6714 14.0446 37.1837 15.9248 36.8557 17.6786C36.733 18.331 37.013 19.0049 37.5605 19.38C39.0325 20.388 39.9998 22.0807 39.9998 23.9998C39.9998 25.9189 39.0325 27.6116 37.5605 28.6196C37.013 28.9947 36.7339 29.6703 36.8557 30.3227C37.1837 32.0765 36.6696 33.9567 35.3123 35.314C34.2198 36.4065 32.7894 36.9512 31.3574 36.9512C31.0108 36.9512 30.6632 36.9197 30.321 36.8557C30.2187 36.8361 30.1167 36.8279 30.0154 36.8279C29.4661 36.8279 28.936 37.0983 28.6196 37.5605C27.6116 39.0334 25.9189 39.9998 23.9998 39.9998C22.0807 39.9998 20.3889 39.0343 19.38 37.5605C19.0635 37.0983 18.5326 36.8262 17.9824 36.8262C17.8811 36.8262 17.7791 36.837 17.6769 36.8557C17.3346 36.9197 16.9888 36.9512 16.6421 36.9512C15.2101 36.9512 13.778 36.4047 12.6855 35.3123C11.3282 33.9549 10.8159 32.0747 11.1439 30.321C11.2665 29.6685 10.9866 28.9947 10.439 28.6196C8.96702 27.6116 7.99978 25.9189 7.99978 23.9998C7.99978 22.0807 8.96613 20.3889 10.439 19.38C10.9866 19.0049 11.2657 18.3293 11.1439 17.6769C10.8159 15.9231 11.3299 14.0429 12.6873 12.6855C13.7797 11.5931 15.2101 11.0484 16.6421 11.0484C16.9888 11.0484 17.3364 11.0799 17.6786 11.1439C17.7808 11.1634 17.8828 11.1717 17.9842 11.1717C18.5335 11.1717 19.0635 10.9012 19.38 10.439C20.388 8.96613 22.0807 7.99978 23.9998 7.99978ZM30.6178 15.8522C29.7621 15.8688 28.9297 16.2958 28.4286 17.0675L22.0866 26.8557L19.3349 23.7272C18.3633 22.6214 16.6759 22.5143 15.571 23.4859C14.4643 24.4583 14.3563 26.144 15.3296 27.2498L20.4095 33.0206C20.9171 33.5975 21.6486 33.9269 22.4112 33.9269C22.477 33.9269 22.5408 33.9235 22.6057 33.9182C23.4386 33.8577 24.1949 33.4103 24.6491 32.7099L32.9043 19.9685C33.7052 18.7321 33.3525 17.0802 32.1161 16.2793C31.6528 15.979 31.1313 15.8422 30.6178 15.8522Z" fill="url(#paint0_linear_3644_5238)"/>
<defs>
<linearGradient id="paint0_linear_3644_5238" x1="54.5731" y1="-54.2224" x2="6.75663" y2="-49.6542" gradientUnits="userSpaceOnUse">
<stop offset="0.119173" stop-color="#009688"/>
<stop offset="1" stop-color="#00695C"/>
</linearGradient>
</defs>
</svg>
