<svg width="20" height="21" viewBox="0 0 20 21" fill="none" xmlns="http://www.w3.org/2000/svg">
<path d="M9.99 0.5C4.47 0.5 0 4.98 0 10.5C0 16.02 4.47 20.5 9.99 20.5C15.52 20.5 20 16.02 20 10.5C20 4.98 15.52 0.5 9.99 0.5ZM16.92 6.5H13.97C13.65 5.25 13.19 4.05 12.59 2.94C14.43 3.57 15.96 4.85 16.92 6.5ZM10 2.54C10.83 3.74 11.48 5.07 11.91 6.5H8.09C8.52 5.07 9.17 3.74 10 2.54ZM2.26 12.5C2.1 11.86 2 11.19 2 10.5C2 9.81 2.1 9.14 2.26 8.5H5.64C5.56 9.16 5.5 9.82 5.5 10.5C5.5 11.18 5.56 11.84 5.64 12.5H2.26ZM3.08 14.5H6.03C6.35 15.75 6.81 16.95 7.41 18.06C5.57 17.43 4.04 16.16 3.08 14.5ZM6.03 6.5H3.08C4.04 4.84 5.57 3.57 7.41 2.94C6.81 4.05 6.35 5.25 6.03 6.5ZM10 18.46C9.17 17.26 8.52 15.93 8.09 14.5H11.91C11.48 15.93 10.83 17.26 10 18.46ZM12.34 12.5H7.66C7.57 11.84 7.5 11.18 7.5 10.5C7.5 9.82 7.57 9.15 7.66 8.5H12.34C12.43 9.15 12.5 9.82 12.5 10.5C12.5 11.18 12.43 11.84 12.34 12.5ZM12.59 18.06C13.19 16.95 13.65 15.75 13.97 14.5H16.92C15.96 16.15 14.43 17.43 12.59 18.06ZM14.36 12.5C14.44 11.84 14.5 11.18 14.5 10.5C14.5 9.82 14.44 9.16 14.36 8.5H17.74C17.9 9.14 18 9.81 18 10.5C18 11.19 17.9 11.86 17.74 12.5H14.36Z" fill="#0E0E2C"/>
</svg>
