<svg width="25" height="24" viewBox="0 0 25 24" fill="none" xmlns="http://www.w3.org/2000/svg">
<path opacity="0.1" fill-rule="evenodd" clip-rule="evenodd" d="M0.308594 12C0.308594 5.37258 5.68118 0 12.3086 0C18.936 0 24.3086 5.37258 24.3086 12C24.3086 18.6274 18.936 24 12.3086 24C5.68118 24 0.308594 18.6274 0.308594 12Z" fill="white"/>
<path fill-rule="evenodd" clip-rule="evenodd" d="M17.3094 7.87427C17.8601 8.02541 18.2939 8.47072 18.4411 9.03622C18.7086 10.0611 18.7086 12.1996 18.7086 12.1996C18.7086 12.1996 18.7086 14.338 18.4411 15.363C18.2939 15.9285 17.8601 16.3738 17.3094 16.525C16.3113 16.7996 12.3086 16.7996 12.3086 16.7996C12.3086 16.7996 8.30588 16.7996 7.3077 16.525C6.75693 16.3738 6.32319 15.9285 6.17599 15.363C5.90857 14.338 5.90857 12.1996 5.90857 12.1996C5.90857 12.1996 5.90857 10.0611 6.17599 9.03622C6.32319 8.47072 6.75693 8.02541 7.3077 7.87427C8.30588 7.59961 12.3086 7.59961 12.3086 7.59961C12.3086 7.59961 16.3113 7.59961 17.3094 7.87427ZM11.1086 10.3996V14.3996L14.3086 12.3996L11.1086 10.3996Z" fill="white"/>
</svg>
